<?xml version="1.0" encoding="UTF-8"?>
<svg id="Layer_1" xmlns="http://www.w3.org/2000/svg" version="1.1" viewBox="0 0 424 243.37">
  <!-- Generator: Adobe Illustrator 30.1.0, SVG Export Plug-In . SVG Version: 2.1.1 Build 136)  -->
  <defs>
    <style>
      .st0 {
        fill: #fff;
      }
    </style>
  </defs>
  <g>
    <path class="st0" d="M20.68,8.35H0V0h50.43v8.35h-20.68v62.96h-9.07V8.35Z"/>
    <path class="st0" d="M57.05,0h8.76v28.42c2.55-3.26,9.07-6.11,14.57-6.11,10.9,0,20.27,9.48,20.27,20.99v28.02h-8.66v-27.92c0-7.03-5.91-13.04-13.25-13.04s-12.94,5.71-12.94,13.25v27.71h-8.76V0Z"/>
    <path class="st0" d="M108.19,47.07c0-13.86,11.31-25.06,25.27-25.06,10.49,0,19.15,6.21,23.13,15.79l-34.84,21.7c3.06,3.06,7.34,4.79,11.72,4.79,7.13,0,13.35-3.26,17.83-8.86l6.62,5.2c-6.01,7.23-14.47,11.51-24.45,11.51-14.06,0-25.27-11.11-25.27-25.06ZM117.46,52.47l27.61-16.91c-1.63-3.57-6.62-5.81-11.61-5.81-9.37,0-16.91,7.64-16.91,17.22,0,1.94.2,3.67.92,5.5Z"/>
    <path class="st0" d="M108.5,85.36h8.66l11,51.55,11.21-51.55h9.17l11.1,51.55,11.11-51.55h8.66l-15.38,71.32h-8.76l-11.31-52.98-11.41,52.98h-8.76l-15.28-71.32Z"/>
    <path class="st0" d="M183.68,108.39h8.66v12.74l24.45-14.57,4.28,7.23-28.73,16.91v25.98h-8.66v-48.29Z"/>
    <path class="st0" d="M221.07,132.54c0-13.75,11-24.86,25.27-24.86s25.17,11.11,25.17,24.86-11,24.86-25.17,24.86-25.27-11.11-25.27-24.86ZM246.33,149.35c8.86,0,16.3-7.54,16.3-16.81s-7.44-16.81-16.3-16.81-16.4,7.44-16.4,16.81,7.44,16.81,16.4,16.81Z"/>
    <path class="st0" d="M279.95,108.39h8.66v5.81c2.34-3.06,8.35-6.52,13.75-6.52,12.43,0,21.19,8.76,21.19,20.99v28.02h-8.76v-28.02c0-7.54-5.5-13.04-13.14-13.04s-13.04,5.5-13.04,15.69v25.37h-8.66v-48.29Z"/>
    <path class="st0" d="M335.27,172.07h31.58c2.85,0,4.89-2.24,4.89-4.58,0-2.85-2.14-4.38-4.89-4.38h-31.58v-11l12.94-7.64-1.12-.31c-7.44-2.04-13.04-8.76-13.04-17.12,0-10.8,8.86-19.77,20.07-19.77,5.71,0,11.31,2.65,15.18,7.13l13.86-8.46,4.38,7.13-13.55,8.35v5.6c0,5.3-2.14,10.19-5.91,14.06-1.12,1.02-2.34,2.04-4.08,2.95l-18.24,10.6h21.29c7.44,0,13.65,5.5,13.65,12.84,0,6.93-6.21,12.94-13.65,12.94h-31.79v-8.35ZM354.12,138.34c6.11,0,11-4.99,11-11.31,0-2.04-.61-4.08-1.53-5.81-1.94-3.36-5.4-5.6-9.48-5.6-6.21,0-11.21,5.09-11.21,11.41s4.99,11.31,11.21,11.31Z"/>
    <path class="st0" d="M247.15,170.73h9.07v62.96h33.52v8.35h-42.59v-71.32Z"/>
    <path class="st0" d="M313.87,193.75h8.97v39.94h16.71v8.35h-42.28v-8.35h16.81v-30.46l-14.57,8.76-4.28-7.23,18.64-11ZM309.59,171.34c0-4.89,3.97-8.76,8.66-8.76s8.86,3.87,8.86,8.76-3.87,8.76-8.86,8.76-8.66-3.87-8.66-8.76Z"/>
    <path class="st0" d="M349.43,238.89c-3.46-2.65-5.4-6.42-5.6-10.8h8.35c.2,2.34,2.24,6.93,14.26,6.93,7.84,0,11.92-2.24,11.92-6.83,0-4.28-2.45-5.6-13.35-7.23-4.48-.61-8.76-1.22-12.53-2.96-6.83-2.75-7.95-8.05-7.95-11.41,0-9.58,8.86-14.37,19.56-14.37,6.21,0,11.31,1.12,14.88,3.26,3.87,2.24,6.01,5.6,6.21,9.68h-8.35c-.41-2.85-5.4-4.58-12.74-4.58-6.01,0-10.8,1.94-10.7,6.21.1,3.46,3.36,4.58,12.84,6.01,4.58.61,9.37,1.22,13.25,3.16,5.4,2.55,7.95,6.52,7.95,12.02,0,7.44-5.4,15.38-20.99,15.38-7.34,0-13.04-1.53-17.01-4.48Z"/>
    <path class="st0" d="M397.92,170.73h8.76v18.85h17.32v8.46h-17.32v35.66h17.32v8.35h-26.08v-71.32Z"/>
  </g>
  <path class="st0" d="M390.48,84.05c.4-.52,1.17-.6,1.64-.16.52.4.56,1.12.16,1.64-.89,1.04-1.78,2.13-2.62,3.27,2.07,0,4.14.08,6.07.12.63.01,1.14.55,1.13,1.18-.01.68-.55,1.19-1.18,1.18-2.41-.05-5.1-.2-7.7-.11-.05.05-.1.14-.15.19l8.12,7.97c.42.49.41,1.21-.03,1.64-.49.47-1.21.46-1.69-.03l-5.15-5.07c.04.34-.06.72-.36.96-.44.43-1.21.41-1.64-.03-.57-.59-.99-1.22-1.31-1.95-.45.86-1.7,2.86-2.34,3.56-1.23,1.52-2.37.24-2.35-.58,0-.43.26-.81.65-1,.3-.43,1.64-2.37,1.94-3.04.35-.72.75-1.38,1.15-2.1l-.24-.25c-1.74.25-3.43.65-4.94,1.39-.58.28-1.25.02-1.53-.56-.28-.58-.07-1.3.51-1.58,1.22-.55,2.52-.96,3.88-1.27l-2.46-2.41c-.47-.44-.46-1.21-.01-1.69.44-.42,1.21-.46,1.64.03l2.83,2.75c-.08-.82-.16-1.64-.34-2.41-.13-.63.27-1.25.89-1.38.63-.13,1.25.27,1.38.89.22,1.02.34,2.17.46,3.38,1.14-1.57,2.33-3.13,3.56-4.55ZM383.41,97.78v-.1s0,.1,0,.1ZM383.41,97.63v-.05s0,.05,0,.05Z"/>
</svg>